<svg width="72" height="72" viewBox="0 0 72 72" fill="none" xmlns="http://www.w3.org/2000/svg">
<path d="M36 72C51.78 72 60.54 72 66.27 66.27C72 60.54 72 51.78 72 36C72 20.22 72 11.46 66.27 5.73C60.54 0 51.78 0 36 0C20.22 0 11.46 0 5.73 5.73C0 11.46 0 20.23 0 36C0 51.77 0 60.54 5.73 66.27C11.46 72 20.23 72 36 72Z" fill="#00960F"/>
<path d="M27.5819 14.8202C33.9219 14.8202 40.0219 13.6502 44.7819 11.5202C45.5419 11.1802 45.8719 10.2902 45.5419 9.54016C45.2019 8.78016 44.3219 8.45016 43.5619 8.78016C39.1819 10.7402 33.5019 11.8202 27.5819 11.8202C26.7519 11.8202 26.0819 12.4902 26.0819 13.3202C26.0819 14.1502 26.7519 14.8202 27.5819 14.8202Z" fill="white"/>
<path d="M40.6819 51.5101C39.9419 51.1401 39.0419 51.4401 38.6719 52.1801L35.8819 57.7701L34.3219 54.6501C33.9519 53.9101 33.0519 53.6101 32.3119 53.9801C31.5719 54.3501 31.2719 55.2501 31.6419 55.9901L34.5419 61.8001C34.5419 61.8101 34.5519 61.8201 34.5619 61.8201C34.6219 61.9301 34.6919 62.0301 34.7719 62.1301C34.7919 62.1501 34.8119 62.1701 34.8319 62.1901C34.9019 62.2601 34.9719 62.3201 35.0619 62.3701C35.0919 62.3901 35.1219 62.4101 35.1519 62.4301C35.1719 62.4401 35.1919 62.4601 35.2119 62.4701C35.2719 62.5001 35.3319 62.5101 35.3919 62.5301C35.4319 62.5401 35.4719 62.5601 35.5119 62.5701C35.6319 62.6001 35.7619 62.6201 35.8819 62.6201C36.0019 62.6201 36.1319 62.6001 36.2519 62.5701C36.2919 62.5601 36.3319 62.5401 36.3719 62.5301C36.4319 62.5101 36.4919 62.4901 36.5519 62.4701C36.5719 62.4601 36.5919 62.4401 36.6119 62.4301C36.6419 62.4101 36.6719 62.3901 36.7019 62.3701C36.7819 62.3101 36.8619 62.2501 36.9319 62.1901C36.9519 62.1701 36.9719 62.1501 36.9919 62.1301C37.0719 62.0401 37.1519 61.9301 37.2019 61.8201C37.2019 61.8101 37.2119 61.8001 37.2219 61.8001L41.3619 53.5301C41.7219 52.7801 41.4219 51.8801 40.6819 51.5101Z" fill="white"/>
<path d="M45.6719 38.5201V24.0101V16.7801C45.6719 16.2701 45.4119 15.8001 44.9919 15.5201C44.5619 15.2401 44.0319 15.2001 43.5619 15.4101C39.1819 17.3701 33.5019 18.4501 27.5819 18.4501C26.7519 18.4501 26.0819 19.1201 26.0819 19.9501C26.0819 20.7801 26.7519 21.4501 27.5819 21.4501C33.0119 21.4501 38.2819 20.5901 42.6719 19.0001V23.0401C39.5819 24.2901 35.9119 25.1501 31.9719 25.5101C31.1519 25.5901 30.5419 26.3201 30.6119 27.1401C30.6819 27.9201 31.3419 28.5001 32.1019 28.5001C32.1519 28.5001 32.1919 28.5001 32.2419 28.4901C36.0119 28.1401 39.5619 27.3701 42.6719 26.2401V30.2801C40.6919 31.0801 38.5019 31.7301 36.1019 32.1801C35.2919 32.3301 34.7519 33.1201 34.9019 33.9301C35.0419 34.6501 35.6719 35.1501 36.3719 35.1501C36.4619 35.1501 36.5619 35.1401 36.6519 35.1201C38.8019 34.7101 40.8119 34.1601 42.6619 33.4901V37.5201C41.8019 37.8701 40.9119 38.2001 39.9619 38.4801C39.1719 38.7201 38.7219 39.5601 38.9619 40.3501C39.1619 41.0001 39.7519 41.4201 40.4019 41.4201C40.5419 41.4201 40.6919 41.4001 40.8319 41.3601C41.4619 41.1701 42.0719 40.9601 42.6619 40.7501V44.8001C38.4219 46.5201 33.1119 47.4601 27.5719 47.4601C26.7419 47.4601 26.0719 48.1301 26.0719 48.9601C26.0719 49.7901 26.7419 50.4601 27.5719 50.4601C33.9119 50.4601 40.0219 49.2901 44.7719 47.1601C45.3119 46.9201 45.6619 46.3801 45.6619 45.7901V38.5201C45.6719 38.5201 45.6719 38.5201 45.6719 38.5201Z" fill="white"/>
</svg>